Coordinates
version=1
nRows=7
nColumns=40
inDegrees=yes

Units are S.I. units (second, meters, Newtons, ...)
Angles are in degrees.

endheader
time	pelvis_tilt	pelvis_list	pelvis_rotation	pelvis_tx	pelvis_ty	pelvis_tz	hip_flexion_r	hip_adduction_r	hip_rotation_r	knee_angle_r	knee_angle_r_beta	ankle_angle_r	subtalar_angle_r	mtp_angle_r	hip_flexion_l	hip_adduction_l	hip_rotation_l	knee_angle_l	knee_angle_l_beta	ankle_angle_l	subtalar_angle_l	mtp_angle_l	lumbar_extension	lumbar_bending	lumbar_rotation	arm_flex_r	arm_add_r	arm_rot_r	elbow_flex_r	pro_sup_r	wrist_flex_r	wrist_dev_r	arm_flex_l	arm_add_l	arm_rot_l	elbow_flex_l	pro_sup_l	wrist_flex_l	wrist_dev_l
      0.65000000	     -2.59975753	     -0.59087535	      0.59467747	     -0.47128433	      0.89231780	      1.10855919	      4.49676337	      2.39939005	    -14.59288655	    -20.90586341	     -0.36487615	     13.66274757	      0.79602896	     -1.86141326	     31.49889764	      5.02220207	     10.81927475	    -36.86265721	     -0.64337474	      9.17501791	     15.69096912	     13.21573463	     -4.69460744	      1.47622411	      0.36201559	      3.32470847	    -10.29141739	    -14.79426919	     33.77422912	     89.95437384	      0.00000000	      0.00000000	     -3.59774829	      5.66973983	     20.97382275	     28.63557827	     89.95437384	      0.00000000	      0.00000000
      0.66000000	     -2.59289072	     -0.45420381	      0.44129206	     -0.46522568	      0.89192149	      1.10855563	      4.03459997	      2.24199843	    -14.43321657	    -20.89688035	     -0.36471937	     13.96901542	      0.86579247	     -2.05857213	     31.52867558	      4.99369543	     11.74778205	    -34.99165808	     -0.61071964	      8.99318912	     15.17502974	     12.82395131	     -4.73963356	      1.30152169	      0.54805515	      3.42368693	    -10.32466415	    -14.71967527	     33.98689779	     89.95437384	      0.00000000	      0.00000000	     -3.71069680	      5.65689269	     21.18229232	     28.34651876	     89.95437384	      0.00000000	      0.00000000
      0.67000000	     -2.82804381	     -0.65428329	      0.44791970	     -0.45931911	      0.89098223	      1.10847359	      3.83516099	      2.44660029	    -14.62478032	    -20.84107982	     -0.36374546	     14.04143489	      0.87389185	     -2.09615911	     32.06597547	      5.21998139	     12.28397214	    -33.61991326	     -0.58677818	      9.10291649	     14.88290597	     12.67625373	     -4.50297546	      1.48420425	      0.54921442	      3.50738919	    -10.36029376	    -14.65360559	     34.17807983	     89.95437384	      0.00000000	      0.00000000	     -3.94394418	      5.63186178	     21.20770619	     28.21005495	     89.95437384	      0.00000000	      0.00000000
      0.68000000	     -2.76934143	     -0.41184560	      0.20840898	     -0.45319412	      0.89070737	      1.10849337	      3.32523119	      2.13783081	    -14.51730858	    -20.84359139	     -0.36378930	     14.26273084	      1.28789622	     -2.46638784	     31.90206994	      5.15113250	     13.36982752	    -31.75958633	     -0.55430935	      8.80054884	     13.45854769	     11.75342412	     -4.63245319	      1.16428999	      0.81238147	      3.61630559	    -10.36299963	    -14.58196700	     34.35619694	     89.95437384	      0.00000000	      0.00000000	     -3.96105124	      5.61356239	     21.56484103	     27.87866557	     89.95437384	      0.00000000	      0.00000000
      0.69000000	     -3.05208666	     -0.54615707	      0.15604604	     -0.44733983	      0.88971990	      1.10831842	      3.20995857	      2.25259802	    -14.54784265	    -20.86212302	     -0.36411274	     14.33759353	      1.37507143	     -2.54767575	     32.38186108	      5.26763778	     13.70562001	    -30.41255472	     -0.53079921	      8.72991520	     12.78511689	     11.45018343	     -4.36119387	      1.26822853	      0.88882997	      3.68108354	    -10.42021736	    -14.46040686	     34.51267790	     89.95437384	      0.00000000	      0.00000000	     -4.12473317	      5.61859341	     21.56264681	     27.72683071	     89.95437384	      0.00000000	      0.00000000
      0.70000000	     -3.00103471	     -0.46849654	     -0.02511481	     -0.44089236	      0.88924261	      1.10817565	      2.70719944	      2.00939748	    -14.90531871	    -20.87440104	     -0.36432703	     14.08253935	      2.07074656	     -6.69811041	     32.31286602	      5.45934889	     15.01968896	    -28.89756496	     -0.50435765	      7.04656024	     12.27389763	      0.14384532	     -4.42723171	      1.13387114	      1.04559481	      3.73486521	    -10.42322921	    -14.44084196	     34.71044947	     89.95437384	      0.00000000	      0.00000000	     -4.22990236	      5.61923418	     21.74247145	     27.45163249	     89.95437384	      0.00000000	      0.00000000
      0.71000000	     -3.19419992	     -0.65283152	     -0.00620107	     -0.43482372	      0.88832350	      1.10775605	      2.48799093	      2.15748626	    -15.07842390	    -20.94017631	     -0.36547502	     14.22578112	      1.99421135	     -6.66990050	     32.79746026	      5.63120704	     15.42293424	    -28.05336006	     -0.48962350	      7.21076061	     12.03720039	      0.12936946	     -4.24028260	      1.29940419	      0.98385944	      3.85325771	    -10.43920776	    -14.39242880	     34.78331654	     89.95437384	      0.00000000	      0.00000000	     -4.41227295	      5.63232313	     21.70865280	     27.27993672	     89.95437384	      0.00000000	      0.00000000
